<svg width="430" height="932" viewBox="0 0 430 932" fill="none" xmlns="http://www.w3.org/2000/svg">
<rect width="430" height="932" fill="#B8B8B8" fill-opacity="0.31"/>
<path d="M169.101 313.46C169.101 324.783 170.866 335.751 172.671 346.941C174.422 357.796 181.768 366.426 183.382 377.724C184.658 386.656 186.565 398.767 190.84 406.603C193.361 411.227 194.609 415.222 194.806 420.567C195.016 426.222 198.886 430.171 199.091 435.483C199.685 450.945 197.769 466.727 199.17 482.134C200.15 492.916 198.536 501.473 192.744 511.013C190.086 515.39 185.099 518.239 183.382 523.39" stroke="black" stroke-width="3" stroke-linecap="round"/>
<path d="M183.382 521.962C183.382 524.195 184.594 531.589 181.636 531.959C176.881 532.553 179.209 537.031 176.558 539.417C172.992 542.626 171.812 546.067 177.352 547.985C179.481 548.722 180.8 548.915 183.064 549.096C185.27 549.272 184.452 551.952 186.793 551.952C190.403 551.952 189.094 570.23 189.094 572.818C189.094 578.954 189.094 585.089 189.094 591.225C189.094 596.264 191.95 600.76 191.95 606.22C191.95 616.692 191.95 627.165 191.95 637.638C191.95 642.718 194.806 645.817 194.806 651.126C194.806 658.81 196.235 666.263 196.235 673.975C196.235 686.166 202.217 686.193 212.737 686.193C218.202 686.193 221.756 688.733 227.097 689.129C229.253 689.288 247.094 691.906 237.649 691.906" stroke="black" stroke-width="3" stroke-linecap="round"/>
<path d="M199.091 687.621C205.552 693.436 208.63 700.671 214.165 706.821C215.087 707.846 218.767 716.165 220.988 714.438C221.239 714.243 220.406 707.895 220.592 707.059C222.902 696.66 237.649 707.537 237.649 696.19" stroke="black" stroke-width="3" stroke-linecap="round"/>
<path d="M197.663 690.478C196.321 683.767 194.446 682.63 197.663 676.197" stroke="black" stroke-width="3" stroke-linecap="round"/>
<path d="M237.649 699.046C232.845 688.836 234.835 676.637 237.491 666.676C238.504 662.877 236.264 660.541 240.188 658.742C241.038 658.353 244.144 654.835 244.631 653.982C246.807 650.175 246.766 645.799 249.868 641.922C251.424 639.977 249.962 636.981 251.375 634.782C252.951 632.33 255.154 630.244 257.325 628.435C260.321 625.938 262.27 612.113 261.848 608.521C261.204 603.051 260.884 597.842 260.499 592.256C260.011 585.186 255.119 576.729 253.438 569.724C250.823 558.828 251.159 548.217 247.963 537.671C246.096 531.51 241.523 527.484 240.823 521.01C239.871 512.2 240.506 503.052 240.506 494.193C240.506 488.828 235.894 484.104 234.873 478.484C233.735 472.225 231.553 466.904 229.398 460.871C228.253 457.664 224.408 456.496 223.527 453.413C222.924 451.301 223.368 448.457 223.368 446.273C223.368 444.023 223.541 441.691 223.368 439.45C223.129 436.33 219.22 435.969 219.084 432.309C218.697 421.863 219.084 411.976 219.084 401.288C219.084 396.593 216.228 391.895 216.228 387.086C216.228 384.33 213.57 382.934 213.372 380.263C213.173 377.583 214.079 374.362 212.42 372.012C206.97 364.291 207.266 345.257 209.008 335.675C209.845 331.069 207.983 326.247 207.659 321.711C207.269 316.251 206.836 310.288 206.152 304.812C204.996 295.568 202.224 281.02 195.124 275.694C190.742 272.408 188.323 268.069 181.16 270.934C176.182 272.925 173.773 277.842 171.957 282.835C169.641 289.204 166.151 290.683 169.18 297.751C170.953 301.886 171.526 312.876 174.02 315.681C179.815 322.201 171.957 333.149 171.957 340.594" stroke="black" stroke-width="3" stroke-linecap="round"/>
<ellipse cx="196" cy="206" rx="64" ry="33" fill="#65E1AD" fill-opacity="0.41"/>
<path d="M218.802 206.051L228.693 206.015C230.288 206.01 231.072 207.087 229.94 207.711L216.531 215.359C215.824 215.762 214.725 215.766 214.014 215.368L200.551 207.837C199.45 207.201 200.226 206.118 201.821 206.112L211.712 206.076C211.685 198.617 199.54 192.76 185.826 194.449C177.782 195.418 171.308 199.122 169.658 203.648C167.025 210.797 175.733 217.126 187.471 218.044C189.173 218.178 190.488 219.013 190.491 219.993C190.495 221.193 188.62 222.16 186.492 222.007C170.925 220.823 159.374 212.505 162.601 203.033C164.741 196.785 173.621 191.733 184.677 190.474C202.857 188.428 218.766 196.171 218.802 206.051Z" fill="black"/>
</svg>
